<?xml version="1.0" encoding="UTF-8" standalone="no"?>
<!-- Created with Inkscape (http://www.inkscape.org/) -->

<svg
   xmlns:dc="http://purl.org/dc/elements/1.1/"
   xmlns:cc="http://creativecommons.org/ns#"
   xmlns:rdf="http://www.w3.org/1999/02/22-rdf-syntax-ns#"
   xmlns:svg="http://www.w3.org/2000/svg"
   xmlns="http://www.w3.org/2000/svg"
   xmlns:sodipodi="http://sodipodi.sourceforge.net/DTD/sodipodi-0.dtd"
   xmlns:inkscape="http://www.inkscape.org/namespaces/inkscape"
   width="55.675343mm"
   height="42.777397mm"
   viewBox="0 0 197.27484 151.57345"
   id="svg2"
   version="1.1"
   inkscape:version="0.91 r13725"
   sodipodi:docname="finallogo-white-path.svg"
   inkscape:export-filename="/Users/chrishimes/Documents/RachelsSoap/Rachelslogo.png"
   inkscape:export-xdpi="300"
   inkscape:export-ydpi="300">
  <defs
     id="defs4" />
  <sodipodi:namedview
     id="base"
     pagecolor="#ffffff"
     bordercolor="#666666"
     borderopacity="1.0"
     inkscape:pageopacity="0.0"
     inkscape:pageshadow="2"
     inkscape:zoom="1.1347768"
     inkscape:cx="136.83779"
     inkscape:cy="-45.009365"
     inkscape:document-units="px"
     inkscape:current-layer="g3788"
     showgrid="false"
     inkscape:window-width="1255"
     inkscape:window-height="817"
     inkscape:window-x="208"
     inkscape:window-y="107"
     inkscape:window-maximized="0"
     fit-margin-top="0"
     fit-margin-left="0"
     fit-margin-right="0"
     fit-margin-bottom="0" />
  <metadata
     id="metadata7">
    <rdf:RDF>
      <cc:Work
         rdf:about="">
        <dc:format>image/svg+xml</dc:format>
        <dc:type
           rdf:resource="http://purl.org/dc/dcmitype/StillImage" />
        <dc:title></dc:title>
      </cc:Work>
    </rdf:RDF>
  </metadata>
  <g
     inkscape:label="Layer 1"
     inkscape:groupmode="layer"
     id="layer1"
     transform="translate(-277.41499,-660.14597)">
    <text
       xml:space="preserve"
       style="font-style:normal;font-variant:normal;font-weight:normal;font-stretch:normal;font-size:40px;line-height:125%;font-family:'Savoye LET';-inkscape-font-specification:'Savoye LET';letter-spacing:0px;word-spacing:0px;fill:#000000;fill-opacity:1;stroke:none;stroke-width:1px;stroke-linecap:butt;stroke-linejoin:miter;stroke-opacity:1"
       x="97.85714"
       y="203.43362"
       id="text4201"
       sodipodi:linespacing="125%"><tspan
         sodipodi:role="line"
         id="tspan4203"
         x="97.85714"
         y="203.43362" /></text>
    <text
       xml:space="preserve"
       style="font-style:normal;font-variant:normal;font-weight:normal;font-stretch:normal;font-size:40px;line-height:125%;font-family:'Savoye LET';-inkscape-font-specification:'Savoye LET';letter-spacing:0px;word-spacing:0px;fill:#000000;fill-opacity:1;stroke:none;stroke-width:1px;stroke-linecap:butt;stroke-linejoin:miter;stroke-opacity:1"
       x="237.14285"
       y="125.21935"
       id="text4217"
       sodipodi:linespacing="125%"><tspan
         sodipodi:role="line"
         id="tspan4219"
         x="237.14285"
         y="125.21935" /></text>
  </g>
  <g
     inkscape:groupmode="layer"
     id="layer2"
     inkscape:label="Layer 2"
     transform="translate(-277.41499,-660.14597)">
    <text
       xml:space="preserve"
       style="font-style:normal;font-variant:normal;font-weight:normal;font-stretch:normal;font-size:40px;line-height:125%;font-family:'Savoye LET';-inkscape-font-specification:'Savoye LET';letter-spacing:0px;word-spacing:0px;fill:#000000;fill-opacity:1;stroke:none;stroke-width:1px;stroke-linecap:butt;stroke-linejoin:miter;stroke-opacity:1"
       x="182.33253"
       y="588.19708"
       id="text3389"
       sodipodi:linespacing="125%"><tspan
         sodipodi:role="line"
         id="tspan3391"
         x="182.33253"
         y="588.19708" /></text>
    <text
       xml:space="preserve"
       style="font-style:normal;font-variant:normal;font-weight:normal;font-stretch:normal;font-size:40px;line-height:125%;font-family:'Savoye LET';-inkscape-font-specification:'Savoye LET';letter-spacing:0px;word-spacing:0px;fill:#000000;fill-opacity:1;stroke:none;stroke-width:1px;stroke-linecap:butt;stroke-linejoin:miter;stroke-opacity:1"
       x="171.72594"
       y="560.41791"
       id="text3393"
       sodipodi:linespacing="125%"><tspan
         sodipodi:role="line"
         id="tspan3395"
         x="171.72594"
         y="560.41791" /></text>
  </g>
  <g
     inkscape:label="Layer 2 copy"
     id="g3788"
     inkscape:groupmode="layer"
     transform="translate(-277.41499,-660.14597)">
    <text
       sodipodi:linespacing="125%"
       id="text3794"
       y="588.19708"
       x="182.33253"
       style="font-style:normal;font-variant:normal;font-weight:normal;font-stretch:normal;font-size:40px;line-height:125%;font-family:'Savoye LET';-inkscape-font-specification:'Savoye LET';letter-spacing:0px;word-spacing:0px;fill:#000000;fill-opacity:1;stroke:none;stroke-width:1px;stroke-linecap:butt;stroke-linejoin:miter;stroke-opacity:1"
       xml:space="preserve"><tspan
         y="588.19708"
         x="182.33253"
         id="tspan3796"
         sodipodi:role="line" /></text>
    <text
       sodipodi:linespacing="125%"
       id="text3798"
       y="560.41791"
       x="171.72594"
       style="font-style:normal;font-variant:normal;font-weight:normal;font-stretch:normal;font-size:40px;line-height:125%;font-family:'Savoye LET';-inkscape-font-specification:'Savoye LET';letter-spacing:0px;word-spacing:0px;fill:#000000;fill-opacity:1;stroke:none;stroke-width:1px;stroke-linecap:butt;stroke-linejoin:miter;stroke-opacity:1"
       xml:space="preserve"><tspan
         y="560.41791"
         x="171.72594"
         id="tspan3800"
         sodipodi:role="line" /></text>
    <g
       style="font-style:normal;font-variant:normal;font-weight:normal;font-stretch:normal;font-size:53.04005432px;line-height:125%;font-family:'Savoye LET';-inkscape-font-specification:'Savoye LET';letter-spacing:0px;word-spacing:0px;fill:#ffffff;fill-opacity:1;stroke:none;stroke-width:1px;stroke-linecap:butt;stroke-linejoin:miter;stroke-opacity:1"
       id="text5082">
      <path
         d="m 295.74596,687.09032 c 2.1216,-0.74256 3.60672,-1.96248 4.56144,-3.02328 2.06856,-2.28073 3.18241,-5.46313 3.18241,-9.06985 0,-3.65977 -1.11385,-6.84217 -3.18241,-9.12289 -1.5912,-1.80336 -4.61448,-3.92497 -9.81241,-3.92497 l -6.47088,0 -5.19793,0 0,39.35572 6.15265,0 0,-13.31305 4.5084,0 9.91849,13.31305 6.94825,0 -10.60801,-14.21473 z m -10.76713,-4.61449 0,-14.95729 5.51616,0 c 2.54593,0 4.45537,0.68952 5.67529,2.06856 1.48512,1.5912 1.75032,3.81889 1.75032,5.41009 0,1.53816 -0.2652,3.76584 -1.75032,5.35704 -1.21992,1.37904 -3.12936,2.1216 -5.67529,2.1216 l -5.51616,0 z"
         style="font-style:normal;font-variant:normal;font-weight:normal;font-stretch:normal;font-size:53.04005432px;line-height:125%;font-family:'ADAM.CG PRO';-inkscape-font-specification:'ADAM.CG PRO, Normal';text-align:start;writing-mode:lr-tb;text-anchor:start;fill:#ffffff"
         id="path3636" />
      <path
         d="m 334.84552,701.30505 6.73609,0 -17.0789,-41.15908 -17.13194,41.15908 6.78913,0 3.34152,-8.43336 14.00258,0 3.34152,8.43336 z m -15.11641,-13.94953 4.7736,-11.98705 4.7736,11.98705 -9.5472,0 z"
         style="font-style:normal;font-variant:normal;font-weight:normal;font-stretch:normal;font-size:53.04005432px;line-height:125%;font-family:'ADAM.CG PRO';-inkscape-font-specification:'ADAM.CG PRO, Normal';text-align:start;writing-mode:lr-tb;text-anchor:start;fill:#ffffff"
         id="path3638" />
      <path
         d="m 368.69349,689.68928 c -0.42432,0.5304 -0.84864,1.00776 -1.32601,1.48512 -2.54592,2.54593 -5.94048,3.97801 -9.5472,3.97801 -3.60673,0 -7.00129,-1.43208 -9.54721,-3.97801 -2.54593,-2.54592 -3.97801,-5.94048 -3.97801,-9.54721 0,-3.60672 1.43208,-7.00128 3.97801,-9.54721 2.54592,-2.59896 5.94048,-3.978 9.54721,-3.978 3.1824,0 6.15264,1.0608 8.53944,3.02328 l 0,-7.26648 c -0.2652,-0.10608 -0.58344,-0.2652 -0.84864,-0.37129 -2.43984,-1.0608 -5.0388,-1.53816 -7.6908,-1.53816 -2.65201,0 -5.25097,0.47736 -7.63777,1.53816 -2.38681,0.95473 -4.45537,2.38681 -6.25873,4.19017 -1.80336,1.80336 -3.23544,3.92496 -4.2432,6.25873 -1.00776,2.43984 -1.53817,5.0388 -1.53817,7.6908 0,2.65201 0.53041,5.25097 1.53817,7.63777 1.00776,2.3868 2.43984,4.45537 4.2432,6.25873 1.80336,1.80336 3.87192,3.23544 6.25873,4.2432 2.3868,1.00776 4.98576,1.53816 7.63777,1.53816 2.652,0 5.25096,-0.5304 7.6908,-1.53816 1.11384,-0.47736 2.17465,-1.0608 3.18241,-1.69728 l 0,-8.38033 z"
         style="font-style:normal;font-variant:normal;font-weight:normal;font-stretch:normal;font-size:53.04005432px;line-height:125%;font-family:'ADAM.CG PRO';-inkscape-font-specification:'ADAM.CG PRO, Normal';text-align:start;writing-mode:lr-tb;text-anchor:start;fill:#ffffff"
         id="path3640" />
      <path
         d="m 398.49273,661.94933 -6.15265,0 0,16.8137 -15.69985,0 0,-16.8137 -6.15265,0 0,39.35572 6.15265,0 0,-16.97281 15.69985,0 0,16.97281 6.15265,0 0,-39.35572 z"
         style="font-style:normal;font-variant:normal;font-weight:normal;font-stretch:normal;font-size:53.04005432px;line-height:125%;font-family:'ADAM.CG PRO';-inkscape-font-specification:'ADAM.CG PRO, Normal';text-align:start;writing-mode:lr-tb;text-anchor:start;fill:#ffffff"
         id="path3642" />
      <path
         d="m 407.81515,667.4655 17.45017,0 0,-5.51617 -17.50321,0 -6.09961,0 0,39.35572 6.09961,0 17.50321,0 0,-5.5692 -17.45017,0 0,-12.19921 14.37385,0 0,-5.56921 -14.37385,0 0,-10.50193 z"
         style="font-style:normal;font-variant:normal;font-weight:normal;font-stretch:normal;font-size:53.04005432px;line-height:125%;font-family:'ADAM.CG PRO';-inkscape-font-specification:'ADAM.CG PRO, Normal';text-align:start;writing-mode:lr-tb;text-anchor:start;fill:#ffffff"
         id="path3644" />
      <path
         d="m 451.28135,695.73585 -16.44242,0 0,-33.78652 -6.15264,0 0,39.35572 6.0996,0 16.49546,0 0,-5.5692 z"
         style="font-style:normal;font-variant:normal;font-weight:normal;font-stretch:normal;font-size:53.04005432px;line-height:125%;font-family:'ADAM.CG PRO';-inkscape-font-specification:'ADAM.CG PRO, Normal';text-align:start;writing-mode:lr-tb;text-anchor:start;fill:#ffffff"
         id="path3646" />
      <path
         d="m 450.18395,671.81478 2.43984,-9.86545 -5.51616,0 -0.63648,9.86545 3.7128,0 z"
         style="font-style:normal;font-variant:normal;font-weight:normal;font-stretch:normal;font-size:53.04005432px;line-height:125%;font-family:'ADAM.CG PRO';-inkscape-font-specification:'ADAM.CG PRO, Normal';text-align:start;writing-mode:lr-tb;text-anchor:start;fill:#ffffff"
         id="path3648" />
      <path
         d="m 474.21697,687.88592 c -0.58344,-1.8564 -1.75032,-3.60672 -3.4476,-5.14489 -0.84864,-0.7956 -2.01552,-1.90944 -2.97024,-2.86416 l -6.57697,-6.31176 c -1.64424,-1.59121 -1.69728,-2.81113 -1.48512,-3.55369 0.31824,-1.11384 1.48512,-2.01552 2.86416,-2.28072 1.11384,-0.21216 3.1824,-0.21216 5.19793,2.22768 l 4.82664,-3.87192 c -1.53816,-1.8564 -3.34152,-3.18241 -5.35705,-3.97801 -1.90944,-0.68952 -3.92496,-0.84864 -5.8344,-0.42432 -1.75032,0.31824 -3.39456,1.11384 -4.72057,2.22769 -1.43208,1.21992 -2.43984,2.70504 -2.9172,4.40232 -0.47736,1.5912 -0.42432,3.34152 0.10608,4.98577 0.5304,1.69728 1.53816,3.28848 3.02328,4.72056 l 4.82665,4.56144 c 0.21216,0.21216 3.07632,3.02329 4.82664,4.66753 1.11385,1.0608 2.33377,2.652 1.80337,4.45536 -0.47736,1.59121 -2.12161,2.91721 -4.13713,3.28849 -1.16688,0.2652 -2.43984,0.15912 -3.60672,-0.31824 -1.43208,-0.5304 -2.75808,-1.5912 -3.87193,-3.07633 l -4.87968,3.81889 c 1.8564,2.3868 4.03104,4.03104 6.52393,5.0388 1.48512,0.58344 3.07632,0.84864 4.66752,0.84864 0.7956,0 1.5912,-0.053 2.3868,-0.21216 4.29625,-0.84864 7.74385,-3.87192 8.85769,-7.6908 0.5304,-1.80337 0.47736,-3.71281 -0.10608,-5.51617 z"
         style="font-style:normal;font-variant:normal;font-weight:normal;font-stretch:normal;font-size:53.04005432px;line-height:125%;font-family:'ADAM.CG PRO';-inkscape-font-specification:'ADAM.CG PRO, Normal';text-align:start;writing-mode:lr-tb;text-anchor:start;fill:#ffffff"
         id="path3650" />
    </g>
    <g
       style="font-style:normal;font-variant:normal;font-weight:normal;font-stretch:normal;font-size:59.23649979px;line-height:125%;font-family:'Savoye LET';-inkscape-font-specification:'Savoye LET';letter-spacing:0px;word-spacing:0px;fill:#ffffff;fill-opacity:1;stroke:none;stroke-width:1px;stroke-linecap:butt;stroke-linejoin:miter;stroke-opacity:1"
       id="text5086">
      <path
         d="m 314.82284,789.23917 c -0.9774,-3.10992 -2.9322,-6.04212 -5.77556,-8.61891 -1.42167,-1.33282 -3.37648,-3.19877 -4.97586,-4.79816 l -11.01799,-10.57371 c -2.7545,-2.66565 -2.84335,-4.70931 -2.48794,-5.95327 0.53313,-1.86595 2.48794,-3.37648 4.79816,-3.82076 1.86595,-0.35542 5.33129,-0.35542 8.70777,3.7319 l 8.08578,-6.48639 c -2.57679,-3.10992 -5.59785,-5.33129 -8.97433,-6.66411 -3.19877,-1.15511 -6.57525,-1.42168 -9.77402,-0.71084 -2.93221,0.53313 -5.68671,1.86595 -7.90808,3.7319 -2.39907,2.04366 -4.08731,4.53159 -4.88701,7.37495 -0.79969,2.66564 -0.71084,5.59785 0.17771,8.35234 0.88855,2.84335 2.57679,5.509 5.06472,7.90808 l 8.08579,7.6415 c 0.35541,0.35542 5.15357,5.06472 8.08578,7.81922 1.86595,1.7771 3.90961,4.44274 3.02106,7.4638 -0.79969,2.66564 -3.55419,4.88701 -6.93067,5.509 -1.95481,0.44427 -4.08732,0.26656 -6.04212,-0.53313 -2.39908,-0.88855 -4.62045,-2.66565 -6.4864,-5.15358 l -8.17464,6.39754 c 3.10992,3.99847 6.75296,6.75297 10.92914,8.44121 2.48793,0.9774 5.15357,1.42167 7.81921,1.42167 1.33283,0 2.66565,-0.0888 3.99847,-0.35542 7.19723,-1.42167 12.97279,-6.48639 14.83874,-12.88394 0.88855,-3.02106 0.79969,-6.21983 -0.17771,-9.24089 z"
         style="font-style:normal;font-variant:normal;font-weight:normal;font-stretch:normal;font-size:88.85475159px;line-height:125%;font-family:'ADAM.CG PRO';-inkscape-font-specification:'ADAM.CG PRO, Normal';text-align:start;writing-mode:lr-tb;text-anchor:start;fill:#ffffff"
         id="path3627" />
      <path
         d="m 348.35481,811.71942 c 4.44274,0 8.79662,-0.88855 12.88394,-2.57679 3.90961,-1.68824 7.37495,-4.08731 10.48486,-7.10838 3.02107,-3.02106 5.33129,-6.48639 7.01953,-10.48486 1.68824,-3.99846 2.57679,-8.35234 2.57679,-12.79508 0,-4.44274 -0.88855,-8.79662 -2.57679,-12.88394 -1.68824,-3.90961 -3.99846,-7.37494 -7.01953,-10.48486 -3.10991,-3.02106 -6.57525,-5.33129 -10.48486,-7.01953 -4.08732,-1.68824 -8.4412,-2.57678 -12.88394,-2.57678 -4.44273,0 -8.79662,0.88854 -12.79508,2.57678 -3.99846,1.68824 -7.4638,3.99847 -10.48486,7.01953 -3.02106,3.10992 -5.42014,6.57525 -7.10838,10.48486 -1.68824,4.08732 -2.57679,8.4412 -2.57679,12.88394 0,4.44274 0.88855,8.79662 2.57679,12.79508 1.68824,3.99847 4.08732,7.4638 7.10838,10.48486 3.02106,3.02107 6.4864,5.42014 10.48486,7.10838 3.99846,1.68824 8.35235,2.57679 12.79508,2.57679 z m 0,-55.62307 c 6.04213,0 11.72883,2.39908 15.99386,6.6641 4.26503,4.26503 6.66411,9.95174 6.66411,15.99386 0,6.04212 -2.39908,11.72883 -6.66411,15.99385 -4.26503,4.26503 -9.95173,6.66411 -15.99386,6.66411 -6.04212,0 -11.72882,-2.39908 -15.99385,-6.66411 -4.26503,-4.26502 -6.66411,-9.95173 -6.66411,-15.99385 0,-6.04212 2.39908,-11.72883 6.66411,-15.99386 4.26503,-4.26502 9.95173,-6.6641 15.99385,-6.6641 z"
         style="font-style:normal;font-variant:normal;font-weight:normal;font-stretch:normal;font-size:88.85475159px;line-height:125%;font-family:'ADAM.CG PRO';-inkscape-font-specification:'ADAM.CG PRO, Normal';text-align:start;writing-mode:lr-tb;text-anchor:start;fill:#ffffff"
         id="path3629" />
      <path
         d="m 419.07514,811.71942 11.28455,0 -28.61123,-68.95129 -28.70008,68.95129 11.37341,0 5.59785,-14.1279 23.45765,0 5.59785,14.1279 z m -25.3236,-23.3688 7.99692,-20.08117 7.99693,20.08117 -15.99385,0 z"
         style="font-style:normal;font-variant:normal;font-weight:normal;font-stretch:normal;font-size:88.85475159px;line-height:125%;font-family:'ADAM.CG PRO';-inkscape-font-specification:'ADAM.CG PRO, Normal';text-align:start;writing-mode:lr-tb;text-anchor:start;fill:#ffffff"
         id="path3631" />
      <path
         d="m 432.71755,745.7892 0,65.93022 10.30715,0 0,-22.30254 9.2409,0 c 8.70776,0 13.77248,-3.55419 16.43813,-6.57525 3.55419,-3.82076 5.33128,-9.15204 5.33128,-15.28302 0,-6.13098 -1.77709,-11.37341 -5.33128,-15.28302 -2.66565,-2.9322 -7.73037,-6.48639 -16.43813,-6.48639 l -10.84028,0 -8.70777,0 z m 29.14436,30.83259 c -2.13251,2.31023 -5.33129,3.46534 -9.59631,3.46534 l -9.2409,0 0,-25.05704 9.2409,0 c 4.26502,0 7.4638,1.24397 9.59631,3.55419 2.39908,2.66564 2.93221,6.39754 2.93221,8.97433 0,2.66564 -0.53313,6.39754 -2.93221,9.06318 z"
         style="font-style:normal;font-variant:normal;font-weight:normal;font-stretch:normal;font-size:88.85475159px;line-height:125%;font-family:'ADAM.CG PRO';-inkscape-font-specification:'ADAM.CG PRO, Normal';text-align:start;writing-mode:lr-tb;text-anchor:start;fill:#ffffff"
         id="path3633" />
    </g>
    <g
       style="font-style:normal;font-variant:normal;font-weight:normal;font-stretch:normal;font-size:44.77550888px;line-height:125%;font-family:'Savoye LET';-inkscape-font-specification:'Savoye LET';letter-spacing:0px;word-spacing:0px;fill:#ffffff;fill-opacity:1;stroke:none;stroke-width:1px;stroke-linecap:butt;stroke-linejoin:miter;stroke-opacity:1"
       id="text5090">
      <path
         d="m 318.85914,704.48348 c -0.35821,0 -0.71641,0.22388 -0.85074,0.58209 -0.13432,0.31342 -1.11938,3.17906 -2.32832,6.67155 -1.16417,3.22383 -2.46266,6.98498 -3.44772,9.80583 l -11.59685,0 0.5373,-1.74624 c 1.02984,-3.17906 2.28355,-7.16408 3.89547,-10.16404 0.67163,-1.38804 2.0149,-2.55221 3.44772,-3.35817 0.3582,-0.1791 0.5373,-0.49253 0.5373,-0.85073 0,-0.3582 -0.26865,-0.94029 -0.94028,-0.94029 -0.13433,0 -0.31343,0.0448 -0.44776,0.13433 -0.98506,0.53731 -1.8358,1.16416 -2.86563,2.14923 -2.194,-0.40298 -4.16412,-1.02984 -5.99992,-1.61192 -3.04473,-0.94029 -5.82082,-1.79102 -9.1342,-1.79102 -3.94025,0 -7.74617,3.58204 -7.74617,7.92526 0,3.89547 2.68653,6.53723 7.02976,6.53723 1.61192,0 3.35816,-0.40298 4.9253,-1.11939 0.35821,-0.1791 0.53731,-0.49253 0.53731,-0.85074 0,-0.3582 -0.26865,-0.94028 -0.89551,-0.94028 -0.1791,0 -0.31343,0.0448 -0.44776,0.0895 -1.34326,0.58208 -2.77608,0.94028 -4.07457,0.94028 -3.04473,0 -5.19396,-1.47759 -5.19396,-4.79097 0,-2.99996 2.91041,-5.91037 5.8656,-5.91037 2.99996,0 5.68649,0.85073 8.55212,1.74624 1.65669,0.49253 3.40294,1.02984 5.32828,1.47759 l -0.13432,0.26866 c -1.74625,3.17906 -2.99996,7.25363 -4.0298,10.47747 l -0.76118,2.32832 -2.50743,0 c -0.53731,0 -0.94029,0.44776 -0.94029,0.98506 0,0.49254 0.40298,0.94029 0.94029,0.94029 l 1.88057,0 c -0.13433,0.3582 -0.26865,0.80596 -0.40298,1.20894 -2.05967,6.35812 -4.07457,12.49237 -10.52224,12.49237 -3.8507,0 -5.91037,-2.59698 -5.91037,-6.13425 0,-4.34322 3.80592,-7.61184 7.79094,-7.61184 0.5373,0 0.94028,-0.44775 0.94028,-0.98506 0,-0.49253 -0.40298,-0.94028 -0.94028,-0.94028 -4.97008,0.0895 -9.67151,4.07457 -9.67151,9.49241 0,4.5671 2.7313,8.05959 7.74616,8.05959 7.88049,0 10.11927,-6.7611 12.40282,-13.79086 0.1791,-0.58208 0.3582,-1.16416 0.58208,-1.79102 l 11.55208,0 -0.76118,2.10445 c -2.77609,7.29841 -4.388,11.86551 -4.388,14.55204 0,3.26861 1.43281,5.77604 4.88053,5.86559 0.5373,0 0.94028,-0.44775 0.98506,-0.94028 0,-0.53731 -0.44776,-0.98507 -0.94029,-0.98507 -2.28355,0 -3.13428,-1.70146 -3.04473,-3.94024 0.0895,-2.32833 1.38804,-5.99992 4.29845,-13.92518 0.31343,-0.85074 2.86563,-8.19392 4.83575,-13.83564 l 2.32833,-6.62677 c 0.22388,-0.58208 -0.13433,-1.25372 -0.89551,-1.25372 z"
         style="font-style:normal;font-variant:normal;font-weight:normal;font-stretch:normal;font-size:44.77550888px;line-height:125%;font-family:Nickainley;-inkscape-font-specification:'Nickainley, Normal';text-align:start;writing-mode:lr-tb;text-anchor:start;fill:#ffffff"
         id="path3604" />
      <path
         d="m 335.62966,725.93095 c -0.13432,-0.0448 -0.26865,-0.0896 -0.40298,-0.0896 -0.3582,0 -0.67163,0.22388 -0.85073,0.58208 l -0.0448,0.13433 c -1.47759,3.31339 -3.62681,8.14914 -6.40289,8.14914 -0.94029,0 -1.34327,-0.5373 -1.34327,-1.88057 0,-1.97012 1.47759,-5.86559 3.08951,-10.38792 l 2.23878,-5.99991 c 0.22387,-0.53731 -0.13433,-1.25372 -0.85074,-1.25372 -0.40298,0 -0.76118,0.22388 -0.89551,0.58208 -0.22388,0.58208 -0.49253,1.25372 -0.76118,2.0149 -0.80596,-1.61192 -2.194,-2.3731 -4.07457,-2.3731 -5.37306,0 -9.89539,10.47747 -9.89539,16.34306 0,2.68653 1.16416,4.83575 3.67159,4.83575 1.92535,0 3.80592,-1.25371 5.59694,-3.76114 0,2.194 1.07461,3.76114 3.22384,3.76114 4.02979,0 6.44767,-5.50738 8.14914,-9.26853 l 0.0448,-0.13432 c 0.0448,-0.13433 0.0896,-0.26866 0.0896,-0.40298 0,-0.35821 -0.22388,-0.67163 -0.58209,-0.85074 z m -16.56693,8.776 c -1.34327,0 -1.74625,-1.29849 -1.74625,-3.26861 0.0895,-4.43277 3.89547,-14.05951 8.01482,-14.14906 1.61192,0 2.77608,1.20894 2.86563,3.26861 l -1.07461,2.86563 c -1.79102,4.56711 -4.43278,11.28343 -8.05959,11.28343 z"
         style="font-style:normal;font-variant:normal;font-weight:normal;font-stretch:normal;font-size:44.77550888px;line-height:125%;font-family:Nickainley;-inkscape-font-specification:'Nickainley, Normal';text-align:start;writing-mode:lr-tb;text-anchor:start;fill:#ffffff"
         id="path3606" />
      <path
         d="m 353.55316,725.93095 c -0.13432,-0.0448 -0.26865,-0.0896 -0.40298,-0.0896 -0.3582,0 -0.67163,0.22388 -0.85073,0.58208 -2.73131,5.91037 -4.34323,8.28347 -6.44768,8.28347 -0.94028,0 -1.34326,-0.58208 -1.34326,-1.88057 0,-3.44771 3.49249,-9.3133 3.49249,-13.29832 0,-2.37311 -0.98506,-4.2089 -4.2089,-4.2089 -1.47759,0 -2.86563,0.85073 -4.16412,2.194 l 0.3582,-0.89551 c 0.22388,-0.58208 -0.22387,-1.25372 -0.89551,-1.25372 -0.40298,0 -0.76118,0.22388 -0.89551,0.62686 -1.74624,4.79098 -4.5671,12.89535 -6.89543,19.34302 -0.1791,0.53731 0.0896,1.02984 0.58209,1.20894 0.49253,0.13433 1.02983,-0.0895 1.20893,-0.62686 l 3.13429,-8.86555 c 1.43282,-3.80592 4.83576,-9.85061 7.56706,-9.85061 1.74625,0 2.32833,1.02984 2.32833,2.32833 0,3.89546 -3.49249,9.08942 -3.49249,13.29832 0,2.194 1.07461,3.76114 3.22383,3.76114 3.04474,0 5.14919,-2.64175 8.19392,-9.40285 0.0448,-0.13433 0.0896,-0.26866 0.0896,-0.40298 0,-0.35821 -0.22387,-0.67163 -0.58208,-0.85074 z"
         style="font-style:normal;font-variant:normal;font-weight:normal;font-stretch:normal;font-size:44.77550888px;line-height:125%;font-family:Nickainley;-inkscape-font-specification:'Nickainley, Normal';text-align:start;writing-mode:lr-tb;text-anchor:start;fill:#ffffff"
         id="path3608" />
      <path
         d="m 372.78144,725.93095 c -0.13432,-0.0448 -0.26865,-0.0896 -0.3582,-0.0896 -0.3582,0 -0.71641,0.22388 -0.89551,0.53731 -2.10445,4.61188 -4.25367,8.32824 -7.47751,8.32824 -1.02984,0 -1.43282,-0.80596 -1.43282,-1.88057 0,-1.16416 0.80596,-3.80592 1.47759,-5.86559 0.40298,-1.25371 5.73127,-16.47739 6.17903,-17.77588 0.1791,-0.49253 -0.13433,-1.25371 -0.89552,-1.25371 -0.3582,0 -0.7164,0.22388 -0.85073,0.58208 l -2.3731,6.85065 -0.85074,2.32833 c -0.7164,-1.38804 -2.01489,-2.28355 -4.02979,-2.28355 -5.41784,0 -9.89539,10.47747 -9.89539,16.34306 0,2.68653 1.16416,4.83575 3.67159,4.83575 2.28355,0 4.11935,-1.70146 5.68649,-3.94024 0,2.50743 1.20894,3.94024 3.31339,3.94024 4.11935,0 6.62677,-3.80591 9.22375,-9.40285 0.0448,-0.13433 0.0896,-0.26866 0.0896,-0.40298 0,-0.35821 -0.22388,-0.67163 -0.58209,-0.85074 z m -17.77587,8.776 c -1.34327,0 -1.74625,-1.29849 -1.74625,-3.26861 0.0895,-4.43277 3.89547,-14.01473 8.01482,-14.14906 1.74624,0 2.77608,1.20894 2.86563,3.26861 0,0.0895 0,0.1791 -0.0448,0.31343 -0.31342,0.71641 -0.62685,1.61192 -1.02983,2.5522 -1.79102,4.56711 -4.43278,11.28343 -8.05959,11.28343 z"
         style="font-style:normal;font-variant:normal;font-weight:normal;font-stretch:normal;font-size:44.77550888px;line-height:125%;font-family:Nickainley;-inkscape-font-specification:'Nickainley, Normal';text-align:start;writing-mode:lr-tb;text-anchor:start;fill:#ffffff"
         id="path3610" />
      <path
         d="m 387.04874,725.93095 c -0.49253,-0.1791 -1.02984,0.0448 -1.25372,0.49253 -2.23877,5.14919 -5.01485,8.28347 -9.35808,8.28347 -2.14922,0 -3.58204,-1.70147 -3.58204,-4.20889 0,-5.37307 4.79098,-13.20878 8.28347,-13.20878 1.34327,0 1.92535,0.76118 1.92535,2.32833 0,1.79102 -1.07461,2.5522 -1.07461,3.17906 0,0.58208 0.3582,0.89551 0.94028,0.89551 1.02984,0 2.0149,-2.05968 2.0149,-4.07457 0,-2.46266 -1.25371,-4.2089 -3.80592,-4.2089 -4.5671,0 -10.16404,8.05959 -10.16404,15.04457 0,3.67159 2.14922,6.13424 5.41784,6.13424 5.19396,0 8.41779,-3.31338 11.1491,-9.40285 0.0448,-0.13433 0.0896,-0.22388 0.0896,-0.35821 0,-0.3582 -0.22388,-0.7164 -0.58208,-0.89551 z"
         style="font-style:normal;font-variant:normal;font-weight:normal;font-stretch:normal;font-size:44.77550888px;line-height:125%;font-family:Nickainley;-inkscape-font-specification:'Nickainley, Normal';text-align:start;writing-mode:lr-tb;text-anchor:start;fill:#ffffff"
         id="path3612" />
      <path
         d="m 403.587,725.93095 c -0.13433,-0.0448 -0.26866,-0.0896 -0.40298,-0.0896 -0.35821,0 -0.67164,0.22388 -0.85074,0.58208 -2.5522,5.77604 -4.25367,8.28347 -6.44767,8.28347 -0.98506,0 -1.34327,-0.76118 -1.34327,-1.88057 0.0448,-0.76118 0.13433,-1.52237 0.40298,-2.46265 0.26866,-1.11939 2.41788,-7.52229 2.99996,-8.99988 0.1791,-0.5373 -0.0448,-1.11939 -0.5373,-1.29849 -0.49253,-0.1791 -1.07462,-0.3582 -1.70147,-0.5373 -1.29849,-0.44776 -2.82086,-0.94029 -4.07457,-1.56715 0.5373,-1.74624 0.7164,-2.14922 0.7164,-2.86563 0,-1.79102 -0.98506,-2.95518 -2.59698,-2.95518 -1.43281,0 -2.7313,1.07461 -2.7313,2.9104 0,1.6567 0.94028,2.82086 2.28355,3.76115 l -0.53731,1.34326 -3.58204,7.79094 c -0.0448,0.13433 -0.0895,0.26865 -0.0895,0.40298 0,0.3582 0.22388,0.67163 0.53731,0.85074 0.13432,0.0448 0.26865,0.0896 0.44775,0.0896 0.31343,0 0.62686,-0.17911 0.80596,-0.53731 3.58204,-7.83571 3.89547,-8.46257 4.07457,-8.99988 0.98506,0.49253 1.47759,0.67164 4.88053,1.79102 -0.40298,0.98506 -2.3731,6.94021 -2.7313,8.37302 -0.31343,1.11939 -0.44776,2.0149 -0.44776,2.91041 0,2.194 1.07461,3.76114 3.17906,3.76114 l 0.0448,0 c 3.04473,0 5.28351,-2.7313 8.19392,-9.40285 0.0448,-0.13433 0.0896,-0.26866 0.0896,-0.40298 0,-0.35821 -0.22388,-0.67163 -0.58208,-0.85074 z M 390.46777,715.0505 c 0,0.44776 -0.26865,1.25372 -0.49253,1.88058 -0.67163,-0.53731 -1.07461,-1.34327 -1.07461,-2.05968 0,-0.49253 0.26865,-0.85073 0.85073,-0.85073 0.35821,0 0.71641,0.26865 0.71641,1.02983 z"
         style="font-style:normal;font-variant:normal;font-weight:normal;font-stretch:normal;font-size:44.77550888px;line-height:125%;font-family:Nickainley;-inkscape-font-specification:'Nickainley, Normal';text-align:start;writing-mode:lr-tb;text-anchor:start;fill:#ffffff"
         id="path3614" />
      <path
         d="m 421.59514,725.93095 c -0.13433,-0.0448 -0.26865,-0.0896 -0.40298,-0.0896 -0.3582,0 -0.67163,0.22388 -0.85073,0.58208 l -0.0448,0.13433 c -1.47759,3.31339 -3.62681,8.14914 -6.4029,8.14914 -0.94028,0 -1.34326,-0.5373 -1.34326,-1.88057 0,-1.97012 1.47759,-5.86559 3.08951,-10.38792 l 2.23877,-5.99991 c 0.22388,-0.53731 -0.13432,-1.25372 -0.85073,-1.25372 -0.40298,0 -0.76118,0.22388 -0.89551,0.58208 -0.22388,0.58208 -0.49253,1.25372 -0.76118,2.0149 -0.80596,-1.61192 -2.194,-2.3731 -4.07458,-2.3731 -5.37306,0 -9.89538,10.47747 -9.89538,16.34306 0,2.68653 1.16416,4.83575 3.67159,4.83575 1.92535,0 3.80592,-1.25371 5.59694,-3.76114 0,2.194 1.07461,3.76114 3.22383,3.76114 4.0298,0 6.44768,-5.50738 8.14915,-9.26853 l 0.0448,-0.13432 c 0.0448,-0.13433 0.0895,-0.26866 0.0895,-0.40298 0,-0.35821 -0.22387,-0.67163 -0.58208,-0.85074 z m -16.56694,8.776 c -1.34326,0 -1.74624,-1.29849 -1.74624,-3.26861 0.0895,-4.43277 3.89547,-14.05951 8.01481,-14.14906 1.61192,0 2.77609,1.20894 2.86564,3.26861 l -1.07462,2.86563 c -1.79102,4.56711 -4.43277,11.28343 -8.05959,11.28343 z"
         style="font-style:normal;font-variant:normal;font-weight:normal;font-stretch:normal;font-size:44.77550888px;line-height:125%;font-family:Nickainley;-inkscape-font-specification:'Nickainley, Normal';text-align:start;writing-mode:lr-tb;text-anchor:start;fill:#ffffff"
         id="path3616" />
      <path
         d="m 437.14554,704.03573 c -0.62685,-1.25371 -1.79102,-1.92535 -3.22383,-1.92535 -3.62682,0 -6.17902,4.5671 -7.92527,9.17898 l -1.56714,4.11935 -3.62682,0 c -0.5373,0 -0.94028,0.44775 -0.94028,0.94028 0,0.53731 0.40298,0.94029 0.94028,0.94029 l 2.91041,0 c -2.7313,7.20886 -4.16412,11.86551 -7.47751,20.99971 -1.20894,0.31343 -2.41788,0.53731 -3.53726,0.71641 -5.37306,0.98506 -7.56706,3.04474 -7.56706,5.86559 0,2.64176 1.74624,4.388 4.43277,4.34323 3.22384,-0.0448 5.99992,-3.22384 8.14914,-9.35808 6.53723,-1.92535 10.2536,-6.08947 13.02968,-12.6267 0.0448,-0.13432 0.0895,-0.26865 0.0895,-0.40298 0,-0.3582 -0.22388,-0.67163 -0.58208,-0.85073 -0.13433,-0.0448 -0.26866,-0.0896 -0.40298,-0.0896 -0.35821,0 -0.67164,0.22388 -0.85074,0.58208 -2.23877,5.28351 -5.37306,9.40286 -10.52224,11.1491 4.52232,-12.89535 5.91036,-16.70126 7.25363,-20.32808 l 3.58204,0 c 0.49253,0 0.94029,-0.40298 0.94029,-0.94029 0,-0.49253 -0.44776,-0.94028 -0.94029,-0.94028 l -2.86563,0 c 0.40298,-1.11939 0.89551,-2.32833 1.34326,-3.40294 1.43282,-3.80592 3.62682,-8.10437 6.2238,-7.97004 0.49253,0 1.07461,0.13433 1.47759,0.80596 0.1791,0.3582 0.49253,0.5373 0.85074,0.5373 0.13432,0 0.26865,-0.0448 0.40298,-0.0896 0.31342,-0.1791 0.5373,-0.49253 0.5373,-0.85073 0,-0.13433 -0.0448,-0.26865 -0.13433,-0.40298 z m -21.62657,36.35771 c -1.47759,4.52233 -3.53726,6.89543 -5.95514,6.94021 -1.52237,0.0448 -2.5522,-0.94029 -2.5522,-2.50743 0.1791,-2.05968 1.92534,-3.22384 6.04469,-3.94025 0.80596,-0.13432 1.61192,-0.31343 2.46265,-0.49253 z"
         style="font-style:normal;font-variant:normal;font-weight:normal;font-stretch:normal;font-size:44.77550888px;line-height:125%;font-family:Nickainley;-inkscape-font-specification:'Nickainley, Normal';text-align:start;writing-mode:lr-tb;text-anchor:start;fill:#ffffff"
         id="path3618" />
      <path
         d="m 439.58161,725.93095 c -0.13432,-0.0448 -0.26865,-0.0896 -0.40298,-0.0896 -0.3582,0 -0.71641,0.22388 -0.89551,0.53731 -2.10445,4.61188 -4.25367,8.32824 -7.47751,8.32824 -0.89551,0 -1.43281,-0.67163 -1.43281,-1.88057 0,-1.29849 0.58208,-3.35816 2.41787,-8.55212 1.4776,-4.16412 2.23878,-6.2238 2.50743,-7.07453 l 3.67159,0 c 0.53731,0 0.94029,-0.40298 0.94029,-0.94029 0,-0.49253 -0.40298,-0.94028 -0.94029,-0.94028 l -2.99995,0 c 0.31342,-0.85074 2.23877,-6.31335 2.10444,-6.0447 0.22388,-0.58208 -0.22387,-1.25371 -0.89551,-1.25371 -0.40298,0 -0.76118,0.22388 -0.89551,0.62686 -0.0448,0.1791 -2.23877,6.49245 -2.32832,6.67155 l -3.44772,0 c -0.5373,0 -0.94028,0.44775 -0.94028,0.94028 0,0.53731 0.40298,0.94029 0.94028,0.94029 l 2.82086,0 -2.28355,6.4029 c -1.43282,3.67159 -2.5522,7.56706 -2.5522,9.22375 0,2.14923 1.16416,3.76114 3.31338,3.76114 4.11935,0 6.62678,-3.80591 9.22376,-9.40285 0.0448,-0.13433 0.0896,-0.26866 0.0896,-0.40298 0,-0.35821 -0.22388,-0.67163 -0.53731,-0.85074 z"
         style="font-style:normal;font-variant:normal;font-weight:normal;font-stretch:normal;font-size:44.77550888px;line-height:125%;font-family:Nickainley;-inkscape-font-specification:'Nickainley, Normal';text-align:start;writing-mode:lr-tb;text-anchor:start;fill:#ffffff"
         id="path3620" />
      <path
         d="m 453.6873,725.93095 c -0.49253,-0.1791 -1.02984,0.0448 -1.25372,0.49253 -2.50743,5.77604 -5.37306,8.37302 -9.04465,8.28347 -2.68653,-0.0896 -4.11935,-1.65669 -4.0298,-4.20889 0.0448,-0.94029 0.1791,-1.79103 0.49253,-2.95519 4.97008,-1.20894 11.64164,-4.07457 11.64164,-8.82077 0,-2.14923 -1.56715,-3.31339 -3.80592,-3.31339 -5.28351,0 -9.94017,9.3133 -10.20882,15.04457 -0.0896,3.67159 2.14923,6.13424 5.86559,6.13424 4.52233,0 7.92527,-2.95518 10.83568,-9.40285 0.0448,-0.13433 0.0896,-0.22388 0.0896,-0.35821 0,-0.3582 -0.22388,-0.7164 -0.58208,-0.89551 z m -13.11923,-0.5373 c 1.43282,-3.44772 4.0298,-8.10437 7.11931,-8.10437 0.98506,0 1.92534,0.22388 1.92534,1.43282 0,3.31338 -5.32828,5.50738 -9.04465,6.67155 z"
         style="font-style:normal;font-variant:normal;font-weight:normal;font-stretch:normal;font-size:44.77550888px;line-height:125%;font-family:Nickainley;-inkscape-font-specification:'Nickainley, Normal';text-align:start;writing-mode:lr-tb;text-anchor:start;fill:#ffffff"
         id="path3622" />
      <path
         d="m 472.91418,725.93095 c -0.13433,-0.0448 -0.26865,-0.0896 -0.3582,-0.0896 -0.35821,0 -0.71641,0.22388 -0.89551,0.53731 -2.10445,4.61188 -4.25368,8.32824 -7.47751,8.32824 -1.02984,0 -1.43282,-0.80596 -1.43282,-1.88057 0,-1.16416 0.80596,-3.80592 1.47759,-5.86559 0.40298,-1.25371 5.73127,-16.47739 6.17902,-17.77588 0.1791,-0.49253 -0.13433,-1.25371 -0.89551,-1.25371 -0.3582,0 -0.71641,0.22388 -0.85073,0.58208 l -2.37311,6.85065 -0.85073,2.32833 c -0.71641,-1.38804 -2.0149,-2.28355 -4.0298,-2.28355 -5.41783,0 -9.89538,10.47747 -9.89538,16.34306 0,2.68653 1.16416,4.83575 3.67159,4.83575 2.28355,0 4.11935,-1.70146 5.68649,-3.94024 0,2.50743 1.20894,3.94024 3.31339,3.94024 4.11934,0 6.62677,-3.80591 9.22375,-9.40285 0.0448,-0.13433 0.0896,-0.26866 0.0896,-0.40298 0,-0.35821 -0.22388,-0.67163 -0.58208,-0.85074 z m -17.77588,8.776 c -1.34326,0 -1.74624,-1.29849 -1.74624,-3.26861 0.0895,-4.43277 3.89547,-14.01473 8.01481,-14.14906 1.74625,0 2.77609,1.20894 2.86564,3.26861 0,0.0895 0,0.1791 -0.0448,0.31343 -0.31343,0.71641 -0.62686,1.61192 -1.02984,2.5522 -1.79102,4.56711 -4.43277,11.28343 -8.05959,11.28343 z"
         style="font-style:normal;font-variant:normal;font-weight:normal;font-stretch:normal;font-size:44.77550888px;line-height:125%;font-family:Nickainley;-inkscape-font-specification:'Nickainley, Normal';text-align:start;writing-mode:lr-tb;text-anchor:start;fill:#ffffff"
         id="path3624" />
    </g>
  </g>
</svg>
