<svg xmlns:svg="http://www.w3.org/2000/svg" xmlns="http://www.w3.org/2000/svg" width="55.7" height="42.8" viewBox="0 0 197.3 151.6" version="1.1"><style>.s0{-inkscape-font-specification:'Savoye LET';fill:#000;font-family:'Savoye LET';font-size:40;letter-spacing:0;line-height:125;word-spacing:0;}.s1{-inkscape-font-specification:'ADAM.CG PRO, Normal';fill:#000;font-family:'ADAM.CG PRO';font-size:53;line-height:125;text-align:start;text-anchor:start;writing-mode:lr-tb;}.s2{-inkscape-font-specification:'ADAM.CG PRO, Normal';fill:#000;font-family:'ADAM.CG PRO';font-size:88.9;line-height:125;text-align:start;text-anchor:start;writing-mode:lr-tb;}.s3{-inkscape-font-specification:'Nickainley, Normal';fill:#000;font-family:Nickainley;font-size:44.8;line-height:125;text-align:start;text-anchor:start;writing-mode:lr-tb;}</style><g transform="translate(-277.41499,-660.14597)"><text xml:space="preserve" x="97.9" y="203.4" class="s0"><tspan x="97.9" y="203.4"/></text><text xml:space="preserve" x="237.1" y="125.2" class="s0"><tspan x="237.1" y="125.2"/></text></g><g transform="translate(-277.41499,-660.14597)"><text xml:space="preserve" x="182.3" y="588.2" class="s0"><tspan x="182.3" y="588.2"/></text><text xml:space="preserve" x="171.7" y="560.4" class="s0"><tspan x="171.7" y="560.4"/></text></g><g transform="translate(-277.41499,-660.14597)"><text y="588.2" x="182.3" xml:space="preserve" class="s0"><tspan y="588.2" x="182.3"/></text><text y="560.4" x="171.7" xml:space="preserve" class="s0"><tspan y="560.4" x="171.7"/></text><path d="m295.7 687.1c2.1-0.7 3.6-2 4.6-3 2.1-2.3 3.2-5.5 3.2-9.1 0-3.7-1.1-6.8-3.2-9.1-1.6-1.8-4.6-3.9-9.8-3.9l-6.5 0-5.2 0 0 39.4 6.2 0 0-13.3 4.5 0 9.9 13.3 6.9 0-10.6-14.2zm-10.8-4.6 0-15 5.5 0c2.5 0 4.5 0.7 5.7 2.1 1.5 1.6 1.8 3.8 1.8 5.4 0 1.5-0.3 3.8-1.8 5.4-1.2 1.4-3.1 2.1-5.7 2.1l-5.5 0zM334.8 701.3l6.7 0-17.1-41.2-17.1 41.2 6.8 0 3.3-8.4 14 0 3.3 8.4zm-15.1-13.9 4.8-12 4.8 12-9.5 0zM368.7 689.7c-0.4 0.5-0.8 1-1.3 1.5-2.5 2.5-5.9 4-9.5 4-3.6 0-7-1.4-9.5-4-2.5-2.5-4-5.9-4-9.5 0-3.6 1.4-7 4-9.5 2.5-2.6 5.9-4 9.5-4 3.2 0 6.2 1.1 8.5 3l0-7.3c-0.3-0.1-0.6-0.3-0.8-0.4-2.4-1.1-5-1.5-7.7-1.5-2.7 0-5.3 0.5-7.6 1.5-2.4 1-4.5 2.4-6.3 4.2-1.8 1.8-3.2 3.9-4.2 6.3-1 2.4-1.5 5-1.5 7.7 0 2.7 0.5 5.3 1.5 7.6 1 2.4 2.4 4.5 4.2 6.3 1.8 1.8 3.9 3.2 6.3 4.2 2.4 1 5 1.5 7.6 1.5 2.7 0 5.3-0.5 7.7-1.5 1.1-0.5 2.2-1.1 3.2-1.7l0-8.4zM398.5 661.9l-6.2 0 0 16.8-15.7 0 0-16.8-6.2 0 0 39.4 6.2 0 0-17 15.7 0 0 17 6.2 0 0-39.4zM407.8 667.5l17.5 0 0-5.5-17.5 0-6.1 0 0 39.4 6.1 0 17.5 0 0-5.6-17.5 0 0-12.2 14.4 0 0-5.6-14.4 0 0-10.5zM451.3 695.7l-16.4 0 0-33.8-6.2 0 0 39.4 6.1 0 16.5 0 0-5.6zM450.2 671.8l2.4-9.9-5.5 0-0.6 9.9 3.7 0zM474.2 687.9c-0.6-1.9-1.8-3.6-3.4-5.1-0.8-0.8-2-1.9-3-2.9l-6.6-6.3c-1.6-1.6-1.7-2.8-1.5-3.6 0.3-1.1 1.5-2 2.9-2.3 1.1-0.2 3.2-0.2 5.2 2.2l4.8-3.9c-1.5-1.9-3.3-3.2-5.4-4-1.9-0.7-3.9-0.8-5.8-0.4-1.8 0.3-3.4 1.1-4.7 2.2-1.4 1.2-2.4 2.7-2.9 4.4-0.5 1.6-0.4 3.3 0.1 5 0.5 1.7 1.5 3.3 3 4.7l4.8 4.6c0.2 0.2 3.1 3 4.8 4.7 1.1 1.1 2.3 2.7 1.8 4.5-0.5 1.6-2.1 2.9-4.1 3.3-1.2 0.3-2.4 0.2-3.6-0.3-1.4-0.5-2.8-1.6-3.9-3.1l-4.9 3.8c1.9 2.4 4 4 6.5 5 1.5 0.6 3.1 0.8 4.7 0.8 0.8 0 1.6-0.1 2.4-0.2 4.3-0.8 7.7-3.9 8.9-7.7 0.5-1.8 0.5-3.7-0.1-5.5z" class="s1"/><path d="m314.8 789.2c-1-3.1-2.9-6-5.8-8.6-1.4-1.3-3.4-3.2-5-4.8l-11-10.6c-2.8-2.7-2.8-4.7-2.5-6 0.5-1.9 2.5-3.4 4.8-3.8 1.9-0.4 5.3-0.4 8.7 3.7l8.1-6.5c-2.6-3.1-5.6-5.3-9-6.7-3.2-1.2-6.6-1.4-9.8-0.7-2.9 0.5-5.7 1.9-7.9 3.7-2.4 2-4.1 4.5-4.9 7.4-0.8 2.7-0.7 5.6 0.2 8.4 0.9 2.8 2.6 5.5 5.1 7.9l8.1 7.6c0.4 0.4 5.2 5.1 8.1 7.8 1.9 1.8 3.9 4.4 3 7.5-0.8 2.7-3.6 4.9-6.9 5.5-2 0.4-4.1 0.3-6-0.5-2.4-0.9-4.6-2.7-6.5-5.2l-8.2 6.4c3.1 4 6.8 6.8 10.9 8.4 2.5 1 5.2 1.4 7.8 1.4 1.3 0 2.7-0.1 4-0.4 7.2-1.4 13-6.5 14.8-12.9 0.9-3 0.8-6.2-0.2-9.2zM348.4 811.7c4.4 0 8.8-0.9 12.9-2.6 3.9-1.7 7.4-4.1 10.5-7.1 3-3 5.3-6.5 7-10.5 1.7-4 2.6-8.4 2.6-12.8 0-4.4-0.9-8.8-2.6-12.9-1.7-3.9-4-7.4-7-10.5-3.1-3-6.6-5.3-10.5-7-4.1-1.7-8.4-2.6-12.9-2.6-4.4 0-8.8 0.9-12.8 2.6-4 1.7-7.5 4-10.5 7-3 3.1-5.4 6.6-7.1 10.5-1.7 4.1-2.6 8.4-2.6 12.9 0 4.4 0.9 8.8 2.6 12.8 1.7 4 4.1 7.5 7.1 10.5 3 3 6.5 5.4 10.5 7.1 4 1.7 8.4 2.6 12.8 2.6zm0-55.6c6 0 11.7 2.4 16 6.7 4.3 4.3 6.7 10 6.7 16 0 6-2.4 11.7-6.7 16-4.3 4.3-10 6.7-16 6.7-6 0-11.7-2.4-16-6.7-4.3-4.3-6.7-10-6.7-16 0-6 2.4-11.7 6.7-16 4.3-4.3 10-6.7 16-6.7zM419.1 811.7l11.3 0-28.6-69-28.7 69 11.4 0 5.6-14.1 23.5 0 5.6 14.1zm-25.3-23.4 8-20.1 8 20.1-16 0zM432.7 745.8l0 65.9 10.3 0 0-22.3 9.2 0c8.7 0 13.8-3.6 16.4-6.6 3.6-3.8 5.3-9.2 5.3-15.3 0-6.1-1.8-11.4-5.3-15.3-2.7-2.9-7.7-6.5-16.4-6.5l-10.8 0-8.7 0zm29.1 30.8c-2.1 2.3-5.3 3.5-9.6 3.5l-9.2 0 0-25.1 9.2 0c4.3 0 7.5 1.2 9.6 3.6 2.4 2.7 2.9 6.4 2.9 9 0 2.7-0.5 6.4-2.9 9.1z" class="s2"/><path d="m318.9 704.5c-0.4 0-0.7 0.2-0.9 0.6-0.1 0.3-1.1 3.2-2.3 6.7-1.2 3.2-2.5 7-3.4 9.8l-11.6 0 0.5-1.7c1-3.2 2.3-7.2 3.9-10.2 0.7-1.4 2-2.6 3.4-3.4 0.4-0.2 0.5-0.5 0.5-0.9 0-0.4-0.3-0.9-0.9-0.9-0.1 0-0.3 0-0.4 0.1-1 0.5-1.8 1.2-2.9 2.1-2.2-0.4-4.2-1-6-1.6-3-0.9-5.8-1.8-9.1-1.8-3.9 0-7.7 3.6-7.7 7.9 0 3.9 2.7 6.5 7 6.5 1.6 0 3.4-0.4 4.9-1.1 0.4-0.2 0.5-0.5 0.5-0.9 0-0.4-0.3-0.9-0.9-0.9-0.2 0-0.3 0-0.4 0.1-1.3 0.6-2.8 0.9-4.1 0.9-3 0-5.2-1.5-5.2-4.8 0-3 2.9-5.9 5.9-5.9 3 0 5.7 0.9 8.6 1.7 1.7 0.5 3.4 1 5.3 1.5l-0.1 0.3c-1.7 3.2-3 7.3-4 10.5l-0.8 2.3-2.5 0c-0.5 0-0.9 0.4-0.9 1 0 0.5 0.4 0.9 0.9 0.9l1.9 0c-0.1 0.4-0.3 0.8-0.4 1.2-2.1 6.4-4.1 12.5-10.5 12.5-3.9 0-5.9-2.6-5.9-6.1 0-4.3 3.8-7.6 7.8-7.6 0.5 0 0.9-0.4 0.9-1 0-0.5-0.4-0.9-0.9-0.9-5 0.1-9.7 4.1-9.7 9.5 0 4.6 2.7 8.1 7.7 8.1 7.9 0 10.1-6.8 12.4-13.8 0.2-0.6 0.4-1.2 0.6-1.8l11.6 0-0.8 2.1c-2.8 7.3-4.4 11.9-4.4 14.6 0 3.3 1.4 5.8 4.9 5.9 0.5 0 0.9-0.4 1-0.9 0-0.5-0.4-1-0.9-1-2.3 0-3.1-1.7-3-3.9 0.1-2.3 1.4-6 4.3-13.9 0.3-0.9 2.9-8.2 4.8-13.8l2.3-6.6c0.2-0.6-0.1-1.3-0.9-1.3zM335.6 725.9c-0.1 0-0.3-0.1-0.4-0.1-0.4 0-0.7 0.2-0.9 0.6l0 0.1c-1.5 3.3-3.6 8.1-6.4 8.1-0.9 0-1.3-0.5-1.3-1.9 0-2 1.5-5.9 3.1-10.4l2.2-6c0.2-0.5-0.1-1.3-0.9-1.3-0.4 0-0.8 0.2-0.9 0.6-0.2 0.6-0.5 1.3-0.8 2-0.8-1.6-2.2-2.4-4.1-2.4-5.4 0-9.9 10.5-9.9 16.3 0 2.7 1.2 4.8 3.7 4.8 1.9 0 3.8-1.3 5.6-3.8 0 2.2 1.1 3.8 3.2 3.8 4 0 6.4-5.5 8.1-9.3l0-0.1c0-0.1 0.1-0.3 0.1-0.4 0-0.4-0.2-0.7-0.6-0.9zm-16.6 8.8c-1.3 0-1.7-1.3-1.7-3.3 0.1-4.4 3.9-14.1 8-14.1 1.6 0 2.8 1.2 2.9 3.3l-1.1 2.9c-1.8 4.6-4.4 11.3-8.1 11.3zM353.6 725.9c-0.1 0-0.3-0.1-0.4-0.1-0.4 0-0.7 0.2-0.9 0.6-2.7 5.9-4.3 8.3-6.4 8.3-0.9 0-1.3-0.6-1.3-1.9 0-3.4 3.5-9.3 3.5-13.3 0-2.4-1-4.2-4.2-4.2-1.5 0-2.9 0.9-4.2 2.2l0.4-0.9c0.2-0.6-0.2-1.3-0.9-1.3-0.4 0-0.8 0.2-0.9 0.6-1.7 4.8-4.6 12.9-6.9 19.3-0.2 0.5 0.1 1 0.6 1.2 0.5 0.1 1-0.1 1.2-0.6l3.1-8.9c1.4-3.8 4.8-9.9 7.6-9.9 1.7 0 2.3 1 2.3 2.3 0 3.9-3.5 9.1-3.5 13.3 0 2.2 1.1 3.8 3.2 3.8 3 0 5.1-2.6 8.2-9.4 0-0.1 0.1-0.3 0.1-0.4 0-0.4-0.2-0.7-0.6-0.9zM372.8 725.9c-0.1 0-0.3-0.1-0.4-0.1-0.4 0-0.7 0.2-0.9 0.5-2.1 4.6-4.3 8.3-7.5 8.3-1 0-1.4-0.8-1.4-1.9 0-1.2 0.8-3.8 1.5-5.9 0.4-1.3 5.7-16.5 6.2-17.8 0.2-0.5-0.1-1.3-0.9-1.3-0.4 0-0.7 0.2-0.9 0.6l-2.4 6.9-0.9 2.3c-0.7-1.4-2-2.3-4-2.3-5.4 0-9.9 10.5-9.9 16.3 0 2.7 1.2 4.8 3.7 4.8 2.3 0 4.1-1.7 5.7-3.9 0 2.5 1.2 3.9 3.3 3.9 4.1 0 6.6-3.8 9.2-9.4 0-0.1 0.1-0.3 0.1-0.4 0-0.4-0.2-0.7-0.6-0.9zm-17.8 8.8c-1.3 0-1.7-1.3-1.7-3.3 0.1-4.4 3.9-14 8-14.1 1.7 0 2.8 1.2 2.9 3.3 0 0.1 0 0.2 0 0.3-0.3 0.7-0.6 1.6-1 2.6-1.8 4.6-4.4 11.3-8.1 11.3zM387 725.9c-0.5-0.2-1 0-1.3 0.5-2.2 5.1-5 8.3-9.4 8.3-2.1 0-3.6-1.7-3.6-4.2 0-5.4 4.8-13.2 8.3-13.2 1.3 0 1.9 0.8 1.9 2.3 0 1.8-1.1 2.6-1.1 3.2 0 0.6 0.4 0.9 0.9 0.9 1 0 2-2.1 2-4.1 0-2.5-1.3-4.2-3.8-4.2-4.6 0-10.2 8.1-10.2 15 0 3.7 2.1 6.1 5.4 6.1 5.2 0 8.4-3.3 11.1-9.4 0-0.1 0.1-0.2 0.1-0.4 0-0.4-0.2-0.7-0.6-0.9zM403.6 725.9c-0.1 0-0.3-0.1-0.4-0.1-0.4 0-0.7 0.2-0.9 0.6-2.6 5.8-4.3 8.3-6.4 8.3-1 0-1.3-0.8-1.3-1.9 0-0.8 0.1-1.5 0.4-2.5 0.3-1.1 2.4-7.5 3-9 0.2-0.5 0-1.1-0.5-1.3-0.5-0.2-1.1-0.4-1.7-0.5-1.3-0.4-2.8-0.9-4.1-1.6 0.5-1.7 0.7-2.1 0.7-2.9 0-1.8-1-3-2.6-3-1.4 0-2.7 1.1-2.7 2.9 0 1.7 0.9 2.8 2.3 3.8l-0.5 1.3-3.6 7.8c0 0.1-0.1 0.3-0.1 0.4 0 0.4 0.2 0.7 0.5 0.9 0.1 0 0.3 0.1 0.4 0.1 0.3 0 0.6-0.2 0.8-0.5 3.6-7.8 3.9-8.5 4.1-9 1 0.5 1.5 0.7 4.9 1.8-0.4 1-2.4 6.9-2.7 8.4-0.3 1.1-0.4 2-0.4 2.9 0 2.2 1.1 3.8 3.2 3.8l0 0c3 0 5.3-2.7 8.2-9.4 0-0.1 0.1-0.3 0.1-0.4 0-0.4-0.2-0.7-0.6-0.9zM390.5 715.1c0 0.4-0.3 1.3-0.5 1.9-0.7-0.5-1.1-1.3-1.1-2.1 0-0.5 0.3-0.9 0.9-0.9 0.4 0 0.7 0.3 0.7 1zM421.6 725.9c-0.1 0-0.3-0.1-0.4-0.1-0.4 0-0.7 0.2-0.9 0.6l0 0.1c-1.5 3.3-3.6 8.1-6.4 8.1-0.9 0-1.3-0.5-1.3-1.9 0-2 1.5-5.9 3.1-10.4l2.2-6c0.2-0.5-0.1-1.3-0.9-1.3-0.4 0-0.8 0.2-0.9 0.6-0.2 0.6-0.5 1.3-0.8 2-0.8-1.6-2.2-2.4-4.1-2.4-5.4 0-9.9 10.5-9.9 16.3 0 2.7 1.2 4.8 3.7 4.8 1.9 0 3.8-1.3 5.6-3.8 0 2.2 1.1 3.8 3.2 3.8 4 0 6.4-5.5 8.1-9.3l0-0.1c0-0.1 0.1-0.3 0.1-0.4 0-0.4-0.2-0.7-0.6-0.9zm-16.6 8.8c-1.3 0-1.7-1.3-1.7-3.3 0.1-4.4 3.9-14.1 8-14.1 1.6 0 2.8 1.2 2.9 3.3l-1.1 2.9c-1.8 4.6-4.4 11.3-8.1 11.3zM437.1 704c-0.6-1.3-1.8-1.9-3.2-1.9-3.6 0-6.2 4.6-7.9 9.2l-1.6 4.1-3.6 0c-0.5 0-0.9 0.4-0.9 0.9 0 0.5 0.4 0.9 0.9 0.9l2.9 0c-2.7 7.2-4.2 11.9-7.5 21-1.2 0.3-2.4 0.5-3.5 0.7-5.4 1-7.6 3-7.6 5.9 0 2.6 1.7 4.4 4.4 4.3 3.2 0 6-3.2 8.1-9.4 6.5-1.9 10.3-6.1 13-12.6 0-0.1 0.1-0.3 0.1-0.4 0-0.4-0.2-0.7-0.6-0.9-0.1 0-0.3-0.1-0.4-0.1-0.4 0-0.7 0.2-0.9 0.6-2.2 5.3-5.4 9.4-10.5 11.1 4.5-12.9 5.9-16.7 7.3-20.3l3.6 0c0.5 0 0.9-0.4 0.9-0.9 0-0.5-0.4-0.9-0.9-0.9l-2.9 0c0.4-1.1 0.9-2.3 1.3-3.4 1.4-3.8 3.6-8.1 6.2-8 0.5 0 1.1 0.1 1.5 0.8 0.2 0.4 0.5 0.5 0.9 0.5 0.1 0 0.3 0 0.4-0.1 0.3-0.2 0.5-0.5 0.5-0.9 0-0.1 0-0.3-0.1-0.4zm-21.6 36.4c-1.5 4.5-3.5 6.9-6 6.9-1.5 0-2.6-0.9-2.6-2.5 0.2-2.1 1.9-3.2 6-3.9 0.8-0.1 1.6-0.3 2.5-0.5zM439.6 725.9c-0.1 0-0.3-0.1-0.4-0.1-0.4 0-0.7 0.2-0.9 0.5-2.1 4.6-4.3 8.3-7.5 8.3-0.9 0-1.4-0.7-1.4-1.9 0-1.3 0.6-3.4 2.4-8.6 1.5-4.2 2.2-6.2 2.5-7.1l3.7 0c0.5 0 0.9-0.4 0.9-0.9 0-0.5-0.4-0.9-0.9-0.9l-3 0c0.3-0.9 2.2-6.3 2.1-6 0.2-0.6-0.2-1.3-0.9-1.3-0.4 0-0.8 0.2-0.9 0.6 0 0.2-2.2 6.5-2.3 6.7l-3.4 0c-0.5 0-0.9 0.4-0.9 0.9 0 0.5 0.4 0.9 0.9 0.9l2.8 0-2.3 6.4c-1.4 3.7-2.6 7.6-2.6 9.2 0 2.1 1.2 3.8 3.3 3.8 4.1 0 6.6-3.8 9.2-9.4 0-0.1 0.1-0.3 0.1-0.4 0-0.4-0.2-0.7-0.5-0.9zM453.7 725.9c-0.5-0.2-1 0-1.3 0.5-2.5 5.8-5.4 8.4-9 8.3-2.7-0.1-4.1-1.7-4-4.2 0-0.9 0.2-1.8 0.5-3 5-1.2 11.6-4.1 11.6-8.8 0-2.1-1.6-3.3-3.8-3.3-5.3 0-9.9 9.3-10.2 15-0.1 3.7 2.1 6.1 5.9 6.1 4.5 0 7.9-3 10.8-9.4 0-0.1 0.1-0.2 0.1-0.4 0-0.4-0.2-0.7-0.6-0.9zm-13.1-0.5c1.4-3.4 4-8.1 7.1-8.1 1 0 1.9 0.2 1.9 1.4 0 3.3-5.3 5.5-9 6.7zM472.9 725.9c-0.1 0-0.3-0.1-0.4-0.1-0.4 0-0.7 0.2-0.9 0.5-2.1 4.6-4.3 8.3-7.5 8.3-1 0-1.4-0.8-1.4-1.9 0-1.2 0.8-3.8 1.5-5.9 0.4-1.3 5.7-16.5 6.2-17.8 0.2-0.5-0.1-1.3-0.9-1.3-0.4 0-0.7 0.2-0.9 0.6l-2.4 6.9-0.9 2.3c-0.7-1.4-2-2.3-4-2.3-5.4 0-9.9 10.5-9.9 16.3 0 2.7 1.2 4.8 3.7 4.8 2.3 0 4.1-1.7 5.7-3.9 0 2.5 1.2 3.9 3.3 3.9 4.1 0 6.6-3.8 9.2-9.4 0-0.1 0.1-0.3 0.1-0.4 0-0.4-0.2-0.7-0.6-0.9zm-17.8 8.8c-1.3 0-1.7-1.3-1.7-3.3 0.1-4.4 3.9-14 8-14.1 1.7 0 2.8 1.2 2.9 3.3 0 0.1 0 0.2 0 0.3-0.3 0.7-0.6 1.6-1 2.6-1.8 4.6-4.4 11.3-8.1 11.3z" class="s3"/></g></svg>